<svg width="30" height="30" viewBox="0 0 30 30" fill="none" xmlns="http://www.w3.org/2000/svg">
<g clip-path="url(#clip0_3027_655)">
<circle cx="8.31649" cy="9.77038" r="5.34212" fill="url(#paint0_radial_3027_655)"/>
<g opacity="0.67" filter="url(#filter0_f_3027_655)">
<path d="M19.6346 10.4885C23.2124 13.7174 31.6084 17.1413 28.3795 20.7191C25.1506 24.2968 6.69492 34.517 -0.989481 30.5666C-4.56725 27.3377 2.21591 16.9411 5.44482 13.3633C8.67372 9.78552 16.0568 7.25961 19.6346 10.4885Z" fill="url(#paint1_linear_3027_655)" fill-opacity="0.3"/>
</g>
<g filter="url(#filter1_ii_3027_655)">
<path fill-rule="evenodd" clip-rule="evenodd" d="M14.0981 24.4326V24.4329H7.073C3.57636 24.4329 0.741773 21.5983 0.741773 18.1017C0.741773 14.605 3.57636 11.7705 7.073 11.7705H7.41992C8.64718 11.7705 9.79711 12.1015 10.7853 12.6792C12.0699 8.87315 15.6693 6.13278 19.9088 6.13278H20.3858C25.4392 6.13278 29.5358 10.2293 29.5358 15.2827C29.5358 20.3361 25.4392 24.4326 20.3858 24.4326H14.0981Z" fill="white"/>
</g>
</g>
<defs>
<filter id="filter0_f_3027_655" x="-39.881" y="-28.8745" width="106.862" height="98.2113" filterUnits="userSpaceOnUse" color-interpolation-filters="sRGB">
<feFlood flood-opacity="0" result="BackgroundImageFix"/>
<feBlend mode="normal" in="SourceGraphic" in2="BackgroundImageFix" result="shape"/>
<feGaussianBlur stdDeviation="18.9384" result="effect1_foregroundBlur_3027_655"/>
</filter>
<filter id="filter1_ii_3027_655" x="-14.4091" y="-6.49285" width="50.6784" height="40.1846" filterUnits="userSpaceOnUse" color-interpolation-filters="sRGB">
<feFlood flood-opacity="0" result="BackgroundImageFix"/>
<feBlend mode="normal" in="SourceGraphic" in2="BackgroundImageFix" result="shape"/>
<feColorMatrix in="SourceAlpha" type="matrix" values="0 0 0 0 0 0 0 0 0 0 0 0 0 0 0 0 0 0 127 0" result="hardAlpha"/>
<feOffset dx="6.73367" dy="-12.6256"/>
<feGaussianBlur stdDeviation="12.6256"/>
<feComposite in2="hardAlpha" operator="arithmetic" k2="-1" k3="1"/>
<feColorMatrix type="matrix" values="0 0 0 0 0 0 0 0 0 0 0 0 0 0 0 0 0 0 0.2 0"/>
<feBlend mode="normal" in2="shape" result="effect1_innerShadow_3027_655"/>
<feColorMatrix in="SourceAlpha" type="matrix" values="0 0 0 0 0 0 0 0 0 0 0 0 0 0 0 0 0 0 127 0" result="hardAlpha"/>
<feOffset dx="-15.1508" dy="9.2588"/>
<feGaussianBlur stdDeviation="12.6256"/>
<feComposite in2="hardAlpha" operator="arithmetic" k2="-1" k3="1"/>
<feColorMatrix type="matrix" values="0 0 0 0 1 0 0 0 0 1 0 0 0 0 1 0 0 0 1 0"/>
<feBlend mode="normal" in2="effect1_innerShadow_3027_655" result="effect2_innerShadow_3027_655"/>
</filter>
<radialGradient id="paint0_radial_3027_655" cx="0" cy="0" r="1" gradientUnits="userSpaceOnUse" gradientTransform="translate(10.442 6.85844) rotate(132.136) scale(11.1308)">
<stop stop-color="#FFF72C"/>
<stop offset="1" stop-color="#DF7800"/>
</radialGradient>
<linearGradient id="paint1_linear_3027_655" x1="2.81013" y1="32.1486" x2="23.5919" y2="8.82603" gradientUnits="userSpaceOnUse">
<stop stop-color="#254659"/>
<stop offset="1" stop-color="#023553"/>
</linearGradient>
<clipPath id="clip0_3027_655">
<rect width="30" height="30" fill="white"/>
</clipPath>
</defs>
</svg>
