<svg width="0" height="0" class="hidden">
  <symbol fill="none" xmlns="http://www.w3.org/2000/svg" viewBox="0 0 40 40" id="bookmark">
    <path d="M8.33325 7.50007C8.33325 6.39498 8.74297 5.33516 9.47228 4.55374C10.2016 3.77233 11.1907 3.33334 12.2221 3.33334L27.7777 3.33334C28.8091 3.33334 29.7983 3.77233 30.5276 4.55374C31.2569 5.33516 31.6666 6.39498 31.6666 7.50007V35.6255C31.6665 35.8139 31.6187 35.9988 31.5283 36.1604C31.4379 36.3221 31.3083 36.4544 31.1533 36.5433C30.9982 36.6323 30.8236 36.6745 30.6479 36.6655C30.4723 36.6565 30.3022 36.5966 30.1558 36.4922L19.9999 30.6275L9.84409 36.4922C9.69768 36.5966 9.52759 36.6565 9.35193 36.6655C9.17627 36.6745 9.00162 36.6323 8.84658 36.5433C8.69155 36.4544 8.56193 36.3221 8.47153 36.1604C8.38113 35.9988 8.33334 35.8139 8.33325 35.6255V7.50007ZM12.2221 5.4167C11.7064 5.4167 11.2119 5.6362 10.8472 6.02691C10.4826 6.41761 10.2777 6.94753 10.2777 7.50007V33.6797L19.4613 28.5087C19.6209 28.395 19.8083 28.3343 19.9999 28.3343C20.1916 28.3343 20.379 28.395 20.5385 28.5087L29.7221 33.6797V7.50007C29.7221 6.94753 29.5173 6.41761 29.1526 6.02691C28.788 5.6362 28.2934 5.4167 27.7777 5.4167H12.2221Z" fill="#8A91AB"></path>
  </symbol>
  <symbol fill="none" xmlns="http://www.w3.org/2000/svg" viewBox="0 0 38 32" id="arrow">
    <path fill-rule="evenodd" clip-rule="evenodd" d="M3.60008 3.7C3.76576 3.47909 4.07916 3.43431 4.30008 3.6L7.90008 6.3C8.12099 6.46568 8.16576 6.77908 8.00008 7C7.83439 7.22091 7.52099 7.26568 7.30008 7.1L4.69332 5.14493C7.69859 21.5076 22.9713 29.4042 35.909 27.0084L36.0911 27.9916C22.6497 30.4808 6.77066 22.2626 3.69429 5.24105L1.70008 7.9C1.53439 8.12091 1.22099 8.16568 1.00008 8C0.779164 7.83431 0.734393 7.52091 0.900078 7.3L3.60008 3.7Z" fill="#8A91AB"></path>
  </symbol>
  <symbol fill="none" xmlns="http://www.w3.org/2000/svg" viewBox="0 0 24 24" id="barometer">
    <ellipse cx="12.0002" cy="13" rx="10.8" ry="10.8" fill="#494F68"></ellipse>
    <path d="M14.1665 14.1053C14.3406 13.7656 14.4334 13.3874 14.4334 12.9948C14.4334 11.6471 13.3427 10.5562 11.9948 10.5562C11.602 10.5562 11.224 10.649 10.8843 10.8231L8.28098 8.21982C7.98788 7.92673 7.51277 7.92673 7.21982 8.21982C6.92673 8.51277 6.92673 8.98788 7.21982 9.28098L9.8231 11.8843C9.649 12.224 9.55624 12.6022 9.55624 12.9948C9.55624 14.3425 10.6468 15.4334 11.9948 15.4334C12.3875 15.4334 12.7656 15.3406 13.1053 15.1665L13.7191 15.7802C14.012 16.0732 14.4873 16.0733 14.7802 15.7802C15.0733 15.4873 15.0733 15.0122 14.7802 14.7191L14.1665 14.1053ZM11.9948 13.9327C11.4765 13.9327 11.0569 13.5133 11.0569 12.9948C11.0569 12.4782 11.4756 12.0569 11.9948 12.0569C12.5131 12.0569 12.9327 12.4763 12.9327 12.9948C12.9327 13.5114 12.514 13.9327 11.9948 13.9327Z" fill="white"></path>
  </symbol>
  <symbol fill="none" xmlns="http://www.w3.org/2000/svg" viewBox="0 0 24 24" id="bookmarkUse">
    <path d="M5 4.50004C5 3.83699 5.24583 3.20109 5.68342 2.73224C6.121 2.2634 6.71449 2 7.33333 2H16.6667C17.2855 2 17.879 2.2634 18.3166 2.73224C18.7542 3.20109 19 3.83699 19 4.50004V21.3753C18.9999 21.4884 18.9713 21.5993 18.917 21.6963C18.8628 21.7932 18.785 21.8726 18.692 21.926C18.599 21.9794 18.4942 22.0047 18.3888 21.9993C18.2834 21.9939 18.1813 21.958 18.0935 21.8953L12 18.3765L5.9065 21.8953C5.81866 21.958 5.7166 21.9939 5.61121 21.9993C5.50581 22.0047 5.40102 21.9794 5.308 21.926C5.21498 21.8726 5.1372 21.7932 5.08297 21.6963C5.02873 21.5993 5.00005 21.4884 5 21.3753V4.50004ZM7.33333 3.25002C7.02391 3.25002 6.72717 3.38172 6.50838 3.61614C6.28958 3.85057 6.16667 4.16851 6.16667 4.50004V20.2078L11.6768 17.1052C11.7726 17.037 11.885 17.0006 12 17.0006C12.115 17.0006 12.2274 17.037 12.3232 17.1052L17.8333 20.2078V4.50004C17.8333 4.16851 17.7104 3.85057 17.4916 3.61614C17.2728 3.38172 16.9761 3.25002 16.6667 3.25002H7.33333Z" fill="#8A91AB"/>
    <path d="M7.33333 3.25002C7.02391 3.25002 6.72717 3.38172 6.50838 3.61614C6.28958 3.85057 6.16667 4.16851 6.16667 4.50004V20.2078L11.6768 17.1052C11.7726 17.037 11.885 17.0006 12 17.0006C12.115 17.0006 12.2274 17.037 12.3232 17.1052L17.8333 20.2078V4.50004C17.8333 4.16851 17.7104 3.85057 17.4916 3.61614C17.2728 3.38172 16.9761 3.25002 16.6667 3.25002H7.33333Z" fill="#8A91AB"/>
  </symbol>

</svg>